<?xml version="1.0" encoding="UTF-8"?>
<svg version="1.1" xmlns="http://www.w3.org/2000/svg" width="512" height="512">
<path d="M0 0 C1.83408523 -0.00570974 3.66816691 -0.01267633 5.50224304 -0.02079773 C10.45855892 -0.03867066 15.41469721 -0.03757266 20.37103558 -0.03185534 C24.51402688 -0.02875715 28.65698438 -0.03486246 32.79997087 -0.04089409 C42.57126592 -0.05491638 52.34247349 -0.05339518 62.11376953 -0.04199219 C72.18980342 -0.03049339 82.26557169 -0.04462145 92.34157062 -0.07138866 C101.00338449 -0.09353624 109.6651149 -0.10018575 118.32695508 -0.09431225 C123.49589487 -0.09094163 128.66466409 -0.09336576 133.83358002 -0.11056328 C138.68957787 -0.12601691 143.54518093 -0.12209447 148.4011631 -0.10325813 C150.18213894 -0.0995689 151.96314396 -0.10269046 153.74409294 -0.11314392 C156.17667335 -0.12633199 158.60794225 -0.11482717 161.04046631 -0.09715271 C162.09542994 -0.11156022 162.09542994 -0.11156022 163.17170596 -0.12625879 C170.36619947 -0.01881568 174.46497357 3.82609997 179.33636475 8.69250488 C180.19155197 9.54205246 181.0467392 10.39160004 181.92784119 11.26689148 C183.30740746 12.65253044 183.30740746 12.65253044 184.71484375 14.06616211 C185.70713217 15.05573738 186.69984489 16.04488734 187.69294739 17.03364563 C190.37707464 19.70868763 193.05487613 22.38997803 195.73128414 25.07274055 C198.5367082 27.8832418 201.3470242 30.68884465 204.15655518 33.49523926 C208.87083113 38.20588178 213.58088576 42.92071421 218.28857422 47.63793945 C223.73009265 53.09035386 229.17879558 58.53550897 234.63126159 63.97697401 C239.3170156 68.65365248 243.99886141 73.33421662 248.67746186 78.01805162 C251.46993987 80.81364623 254.26374826 83.6078753 257.06108856 86.39860535 C259.68891167 89.02065132 262.31179426 91.64754127 264.93094444 94.27824974 C266.35135514 95.70256553 267.77669251 97.12196281 269.2021637 98.54121399 C270.04607162 99.39076157 270.88997955 100.24030914 271.75946045 101.11560059 C272.49463268 101.85152687 273.22980492 102.58745316 273.9872551 103.34568024 C278.04913875 107.97340751 278.08667222 112.064855 278.06860352 118.04052734 C278.07626991 119.34608833 278.07626991 119.34608833 278.08409119 120.67802429 C278.09798753 123.55421837 278.09703041 126.43017284 278.09472656 129.30639648 C278.09861341 131.30652455 278.10294806 133.30665179 278.10771179 135.30677795 C278.11517405 139.49897945 278.11488263 143.69109673 278.10961914 147.88330078 C278.1038239 153.25467309 278.12075687 158.62570065 278.14396381 163.99701595 C278.15869762 168.12771113 278.15957334 172.2583232 278.15645409 176.38903999 C278.15696745 178.36937709 278.16220811 180.34971882 278.17226601 182.33003044 C278.18460643 185.09964256 278.17785314 187.86858219 278.16625977 190.63818359 C278.1739035 191.4554895 278.18154724 192.27279541 278.18942261 193.11486816 C278.14704099 197.69704156 277.76938842 200.69038918 274.79394531 204.40405273 C271.79394531 206.40405273 271.79394531 206.40405273 268.79394531 206.40405273 C268.79394531 213.66405273 268.79394531 220.92405273 268.79394531 228.40405273 C273.61743552 225.50995861 277.62231889 222.26101373 281.82373047 218.59179688 C284.97965922 215.86189606 288.10345709 213.52989471 291.66894531 211.34155273 C293.55395856 210.04161582 293.55395856 210.04161582 294.79394531 208.40405273 C295.12296354 206.00620774 294.75505774 204.06943923 294.31347656 201.68920898 C291.20946349 182.06157742 295.41190362 162.96006889 306.74316406 146.58764648 C308.67603995 144.1003504 310.67958294 141.73840657 312.79394531 139.40405273 C313.43203125 138.69635742 314.07011719 137.98866211 314.72753906 137.25952148 C330.65617231 120.49759958 353.73020958 111.72001015 376.59350586 111.11865234 C399.64075605 110.86377093 420.9520579 117.59256223 438.79394531 132.40405273 C439.68339844 133.07500977 439.68339844 133.07500977 440.59082031 133.75952148 C453.14400196 143.57749154 462.60128606 160.65584118 464.79394531 176.40405273 C466.58872962 197.89139529 463.35619807 216.31805016 449.85644531 233.71655273 C448.52029294 235.29448506 447.16678925 236.85793723 445.79394531 238.40405273 C445.20226562 239.08983398 444.61058594 239.77561523 444.00097656 240.48217773 C428.85851165 256.88382417 405.34788054 265.47419351 383.44238281 266.57202148 C371.25097354 266.64476259 360.14433933 265.21888439 348.63378906 261.11108398 C345.34408386 260.29205146 343.96366406 260.19745285 340.79394531 261.40405273 C338.19625515 263.20875988 335.84617019 265.24471636 333.48144531 267.34155273 C332.83626953 267.89262695 332.19109375 268.44370117 331.52636719 269.01147461 C329.075913 271.12104093 329.075913 271.12104093 326.79394531 273.40405273 C326.79394531 274.06405273 326.79394531 274.72405273 326.79394531 275.40405273 C328.44554198 276.9263429 330.16728658 278.37305466 331.91894531 279.77905273 C332.87027344 280.54991211 333.82160156 281.32077148 334.80175781 282.11499023 C335.78917969 282.87038086 336.77660156 283.62577148 337.79394531 284.40405273 C338.72851562 285.20456055 339.66308594 286.00506836 340.62597656 286.82983398 C344.55393263 288.78170364 346.08541641 288.32896306 350.12011719 287.02709961 C350.85810547 286.75961914 351.59609375 286.49213867 352.35644531 286.21655273 C353.83639894 285.72152046 355.31685614 285.22799074 356.79785156 284.73608398 C357.44568604 284.50638916 358.09352051 284.27669434 358.76098633 284.04003906 C374.26939304 279.1884239 394.5757923 281.03996186 409.79394531 286.40405273 C410.46425781 286.6401123 411.13457031 286.87617188 411.82519531 287.11938477 C431.98102407 294.52035314 449.15668602 308.51266264 458.62597656 328.03686523 C465.6420496 343.844368 468.25827481 363.73919418 462.95800781 380.55639648 C453.74138173 403.10310929 439.00035261 420.02082859 416.30102539 429.94189453 C393.00340419 439.53112168 366.84393001 439.18365374 343.48144531 430.09155273 C332.86382195 425.31289598 324.13866087 419.51616298 315.79394531 411.40405273 C315.15714844 410.82913086 314.52035156 410.25420898 313.86425781 409.66186523 C301.63468859 398.30195427 294.17738952 381.04040921 293.54394531 364.48217773 C293.37519865 355.90488908 293.57101281 347.74004961 295.79394531 339.40405273 C295.26285156 339.18233398 294.73175781 338.96061523 294.18457031 338.73217773 C290.95843922 336.93988268 288.31123258 334.56799231 285.54394531 332.15405273 C278.19501417 324.72337888 278.19501417 324.72337888 269.79394531 320.40405273 C269.79394531 327.33405273 269.79394531 334.26405273 269.79394531 341.40405273 C271.77394531 342.39405273 273.75394531 343.38405273 275.79394531 344.40405273 C278.58025567 347.86603248 278.0825349 352.16268668 278.06860352 356.41040039 C278.07626991 357.61613205 278.07626991 357.61613205 278.08409119 358.84622192 C278.09798905 361.50359552 278.09702935 364.1607096 278.09472656 366.81811523 C278.09861526 368.67174373 278.1029503 370.52537134 278.10771179 372.3789978 C278.1151758 376.26774987 278.11488279 380.15641118 278.10961914 384.04516602 C278.10384438 389.00801242 278.12070621 393.9704832 278.14396381 398.93326759 C278.15876426 402.76478214 278.15956395 406.59620775 278.15645409 410.42774582 C278.1569648 412.2560233 278.16215516 414.0843061 278.17226601 415.91255569 C278.24205892 430.30624005 277.43504728 442.09984462 267.16503906 453.15795898 C260.44978076 459.37463662 252.17178904 462.52128428 243.05241871 462.5354805 C242.12204723 462.53932164 241.19167575 462.54316279 240.2331112 462.54712033 C239.21950436 462.54625385 238.20589752 462.54538737 237.16157532 462.54449463 C236.07813392 462.54746575 234.99469253 462.55043687 233.87841958 462.55349803 C230.2412856 462.56218236 226.60418455 462.56369306 222.96704102 462.56518555 C220.36187164 462.56981391 217.75670294 462.57483859 215.15153503 462.58023071 C208.06874264 462.59379975 200.98595593 462.59983658 193.9031527 462.60424137 C189.47827742 462.60700633 185.05340431 462.61124415 180.6285305 462.61574554 C168.3707318 462.62793656 156.11293483 462.63823606 143.8551302 462.64162064 C143.07093683 462.6418402 142.28674346 462.64205977 141.47878666 462.64228599 C140.69274559 462.64250427 139.90670452 462.64272254 139.09684402 462.64294744 C137.50409718 462.6433909 135.91135035 462.64383746 134.31860352 462.64428711 C133.13352414 462.64461925 133.13352414 462.64461925 131.92450377 462.64495811 C119.12782858 462.64890466 106.33121038 462.66635505 93.5345572 462.68964663 C80.38778409 462.71338177 67.24103954 462.72582348 54.09424466 462.72698855 C46.71630987 462.72790412 39.33844934 462.73362657 31.96053505 462.75180817 C25.01909372 462.76885419 18.07779534 462.77044561 11.13633919 462.76166916 C8.59107842 462.76089863 6.04581008 462.76524348 3.50056839 462.77512741 C0.02062273 462.78784666 -3.45882404 462.78196966 -6.93876648 462.77154541 C-7.94121971 462.77960181 -8.94367295 462.78765822 -9.97650355 462.79595876 C-20.30406518 462.72381938 -29.26881142 460.17795237 -37.20605469 453.40405273 C-46.9506685 443.18639941 -47.64789185 433.4546996 -47.59373474 419.93739319 C-47.59790982 418.24573124 -47.60338829 416.55407208 -47.61005455 414.86241812 C-47.62450494 410.22316721 -47.6202657 405.58409402 -47.61288774 400.9448334 C-47.60815741 395.9379215 -47.62066471 390.93104812 -47.63090515 385.92414856 C-47.64810085 376.11901787 -47.64893159 366.31395125 -47.64369225 356.5088094 C-47.63965091 348.53948588 -47.64109368 340.5701813 -47.64644051 332.60085869 C-47.64718893 331.46664301 -47.64793735 330.33242732 -47.64870845 329.16384147 C-47.65023993 326.85969532 -47.65177827 324.55554917 -47.65332342 322.25140303 C-47.66705115 300.6440144 -47.66160875 279.03666199 -47.65013821 257.42927419 C-47.64020459 237.66118897 -47.65314826 217.89319733 -47.6770724 198.12512655 C-47.70145366 177.82640732 -47.71107372 157.5277317 -47.70441967 137.22899812 C-47.70092542 125.83311424 -47.70317323 114.43730234 -47.7206707 103.04142952 C-47.73538044 93.34085969 -47.73604409 83.64041254 -47.71859979 73.93984515 C-47.71007753 68.99087153 -47.70797026 64.04211719 -47.72325134 59.09315491 C-47.73707166 54.56117365 -47.73236948 50.02960009 -47.71301211 45.49764257 C-47.70924365 43.85977937 -47.71219842 42.22188371 -47.72262376 40.58404935 C-47.772439 32.15762645 -47.72599929 24.78632897 -43.20605469 17.40405273 C-42.7484375 16.60612305 -42.29082031 15.80819336 -41.81933594 14.98608398 C-31.24556826 0.60194958 -16.50468705 -0.04649704 0 0 Z M350.35644531 175.90405273 C347.17043348 179.92848874 346.03935194 183.5810321 345.35644531 188.65405273 C346.13547679 195.33146536 349.0721829 201.20132277 354.04394531 205.77905273 C364.04445602 213.50373606 375.58976252 214.49726129 387.79394531 213.40405273 C397.52754413 211.21456023 404.90524262 206.41415143 410.79394531 198.40405273 C413.5235802 193.81330314 413.62868284 188.58544153 412.79394531 183.40405273 C409.49411611 174.85962806 403.78121476 170.17411911 395.64941406 166.41186523 C379.80406933 160.04948972 362.01464117 163.20645146 350.35644531 175.90405273 Z M352.79394531 343.40405273 C348.19564497 348.86045375 345.3869133 353.93010478 345.52050781 361.22436523 C346.31063007 367.52276841 350.15504329 372.54184931 354.66503906 376.79858398 C364.29626488 384.06176529 375.09015195 385.26825689 386.79394531 384.40405273 C396.2020441 382.53593743 404.71041844 378.17040203 410.29394531 370.15405273 C413.37914844 364.497847 413.92749037 358.44727078 412.18066406 352.21655273 C408.88525221 344.78372953 402.95095135 340.06614371 395.54394531 337.02905273 C380.96458856 331.6894794 365.05540785 333.59066189 352.79394531 343.40405273 Z " fill="#FEEA39" transform="translate(47.2060546875,24.595947265625)"/>
<path d="M0 0 C0.59296875 0.44730469 1.1859375 0.89460938 1.796875 1.35546875 C14.35005665 11.1734388 23.80734075 28.25178845 26 44 C27.7947843 65.48734256 24.56225276 83.91399743 11.0625 101.3125 C9.72634762 102.89043233 8.37284394 104.4538845 7 106 C6.40832031 106.68578125 5.81664062 107.3715625 5.20703125 108.078125 C-9.93543367 124.47977143 -33.44606478 133.07014078 -55.3515625 134.16796875 C-67.54297177 134.24070986 -78.64960599 132.81483166 -90.16015625 128.70703125 C-93.44986146 127.88799873 -94.83028125 127.79340011 -98 129 C-100.59769017 130.80470714 -102.94777512 132.84066363 -105.3125 134.9375 C-105.95767578 135.48857422 -106.60285156 136.03964844 -107.26757812 136.60742188 C-109.71803232 138.71698819 -109.71803232 138.71698819 -112 141 C-112 141.66 -112 142.32 -112 143 C-110.34840333 144.52229016 -108.62665873 145.96900193 -106.875 147.375 C-105.92367187 148.14585937 -104.97234375 148.91671875 -103.9921875 149.7109375 C-103.00476563 150.46632813 -102.01734375 151.22171875 -101 152 C-99.59814453 153.20076172 -99.59814453 153.20076172 -98.16796875 154.42578125 C-94.24001269 156.37765091 -92.7085289 155.92491033 -88.67382812 154.62304688 C-87.5668457 154.22182617 -87.5668457 154.22182617 -86.4375 153.8125 C-84.95754637 153.31746773 -83.47708917 152.82393801 -81.99609375 152.33203125 C-81.34825928 152.10233643 -80.7004248 151.8726416 -80.03295898 151.63598633 C-64.52455227 146.78437116 -44.21815301 148.63590912 -29 154 C-28.3296875 154.23605957 -27.659375 154.47211914 -26.96875 154.71533203 C-6.81292124 162.1163004 10.36274071 176.10860991 19.83203125 195.6328125 C26.84810429 211.44031526 29.4643295 231.33514144 24.1640625 248.15234375 C14.94743641 270.69905656 0.2064073 287.61677586 -22.49291992 297.5378418 C-45.79054112 307.12706894 -71.95001531 306.779601 -95.3125 297.6875 C-105.93012336 292.90884325 -114.65528445 287.11211024 -123 279 C-123.63679687 278.42507813 -124.27359375 277.85015625 -124.9296875 277.2578125 C-137.15925672 265.89790154 -144.6165558 248.63635647 -145.25 232.078125 C-145.41874666 223.50083634 -145.2229325 215.33599687 -143 207 C-143.53109375 206.77828125 -144.0621875 206.5565625 -144.609375 206.328125 C-147.83545745 204.53585697 -150.48290796 202.16411996 -153.25 199.75 C-158.03639981 195.63109362 -162.88533225 191.71064131 -168 188 C-173.23218684 190.29158566 -176.99514976 193.35372972 -181.1875 197.125 C-182.52108833 198.30326951 -183.85572979 199.48034811 -185.19140625 200.65625 C-186.1661792 201.51669922 -186.1661792 201.51669922 -187.16064453 202.39453125 C-190.45502892 205.27001197 -193.86055406 208.00573074 -197.2578125 210.7578125 C-200.37000363 213.30253858 -203.43719742 215.89625916 -206.5 218.5 C-213.1501893 224.14874903 -219.90121449 229.66823868 -226.671875 235.171875 C-231.65598291 239.23406699 -236.59916312 243.33810954 -241.5 247.5 C-246.36254544 251.62538527 -251.23419071 255.73608065 -256.19921875 259.73828125 C-258.18271615 261.34001764 -260.13658275 262.95932002 -262.08203125 264.60546875 C-275.32386739 275.57479852 -289.80974217 279.21058154 -307 278 C-321.69308241 275.0754776 -333.58538573 265.51548575 -342.625 253.875 C-344.03257533 250.93188795 -344.94375294 248.43453617 -344.76171875 245.1328125 C-342.98770702 240.16557966 -338.0129428 237.14455061 -334 234 C-332.2278885 232.54322011 -330.45705566 231.08488342 -328.6875 229.625 C-327.77355469 228.88507813 -326.85960937 228.14515625 -325.91796875 227.3828125 C-322.74582277 224.79243894 -319.61965982 222.15306563 -316.5 219.5 C-311.73107822 215.44965425 -306.92087005 211.45647428 -302.0703125 207.50390625 C-292.49138111 199.69208052 -282.94770048 191.84027163 -273.53173828 183.83251953 C-269.33671818 180.26971596 -265.08085722 176.78674425 -260.8125 173.3125 C-257.68200149 170.73853455 -254.58834366 168.12423097 -251.5 165.5 C-245.72453689 160.59450956 -239.8783065 155.78192222 -234 151 C-231.93645121 149.31377838 -229.8745333 147.62557579 -227.8125 145.9375 C-226.20833333 144.625 -224.60416667 143.3125 -223 142 C-226.49075942 138.42597476 -230.11115095 135.08969781 -233.9375 131.875 C-234.50033691 131.39981934 -235.06317383 130.92463867 -235.64306641 130.43505859 C-239.65158118 127.07340003 -243.74094669 123.83023658 -247.875 120.625 C-253.61841205 116.17040062 -259.12731769 111.49072875 -264.59619141 106.70458984 C-269.96410722 102.0099428 -275.45262615 97.48121191 -281 93 C-287.44545282 87.76425093 -293.83020484 82.46616505 -300.15917969 77.09082031 C-305.38447188 72.6594004 -310.68355885 68.32155158 -316 64 C-321.99504719 59.12683298 -327.96234529 54.22280611 -333.875 49.25 C-334.6781665 48.57831787 -334.6781665 48.57831787 -335.49755859 47.89306641 C-344.69223177 40.12848351 -344.69223177 40.12848351 -345.75 36.25 C-344.57933485 31.17711769 -341.32999479 27.89176221 -338 24 C-337.38769531 23.17757812 -336.77539062 22.35515625 -336.14453125 21.5078125 C-328.47081313 12.53417492 -315.7625575 5.96020878 -304 5 C-297.04109965 4.69313526 -290.60690699 4.6674321 -284 7 C-283.08605469 7.31839844 -282.17210937 7.63679688 -281.23046875 7.96484375 C-269.15935798 12.56705158 -260.02573602 20.69583124 -250.41015625 29.0546875 C-246.60161492 32.36045461 -242.69647708 35.54050684 -238.78125 38.71875 C-235.63616205 41.29842888 -232.53520324 43.92631983 -229.4375 46.5625 C-224.88362574 50.43552052 -220.26504699 54.20622891 -215.578125 57.91796875 C-212.59032727 60.33084176 -209.6694698 62.81799702 -206.75 65.3125 C-201.71276342 69.61239872 -196.56293191 73.73424961 -191.3215332 77.78198242 C-188.19556301 80.21416416 -185.15378697 82.70770673 -182.1796875 85.32421875 C-181.55312256 85.874729 -180.92655762 86.42523926 -180.28100586 86.99243164 C-179.08149425 88.05469281 -177.8891507 89.12512239 -176.70532227 90.20483398 C-174.44896787 92.20427508 -172.25856271 93.87154472 -169.5546875 95.21484375 C-165.22851873 94.85102222 -162.7486783 91.82523717 -159.6875 88.9375 C-158.36063261 87.71856194 -157.03122968 86.50237777 -155.69921875 85.2890625 C-155.06419434 84.70930664 -154.42916992 84.12955078 -153.77490234 83.53222656 C-151.65624154 81.70324235 -149.39133965 80.26000117 -147 78.8125 C-145.1723451 77.56973652 -145.1723451 77.56973652 -144 76 C-143.6800756 73.60556585 -144.03972137 71.66089211 -144.48046875 69.28515625 C-147.58448183 49.65752469 -143.3820417 30.55601616 -132.05078125 14.18359375 C-130.11790536 11.69629766 -128.11436238 9.33435384 -126 7 C-125.36191406 6.29230469 -124.72382813 5.58460938 -124.06640625 4.85546875 C-91.72191185 -29.18109175 -35.13002852 -29.16328703 0 0 Z M-88.4375 43.5 C-91.62351184 47.524436 -92.75459338 51.17697936 -93.4375 56.25 C-92.65846853 62.92741262 -89.72176241 68.79727004 -84.75 73.375 C-74.74948929 81.09968333 -63.20418279 82.09320856 -51 81 C-41.26640118 78.81050749 -33.8887027 74.0100987 -28 66 C-25.27036511 61.40925041 -25.16526247 56.1813888 -26 51 C-29.29982921 42.45557533 -35.01273055 37.77006638 -43.14453125 34.0078125 C-58.98987598 27.64543699 -76.77930414 30.80239873 -88.4375 43.5 Z M-86 211 C-90.59830035 216.45640102 -93.40703201 221.52605205 -93.2734375 228.8203125 C-92.48331524 235.11871568 -88.63890203 240.13779658 -84.12890625 244.39453125 C-74.49768043 251.65771256 -63.70379336 252.86420415 -52 252 C-42.59190121 250.13188469 -34.08352687 245.76634929 -28.5 237.75 C-25.41479687 232.09379427 -24.86645494 226.04321805 -26.61328125 219.8125 C-29.9086931 212.3796768 -35.84299396 207.66209097 -43.25 204.625 C-57.82935675 199.28542667 -73.73853746 201.18660916 -86 211 Z " fill="#000101" transform="translate(486,157)"/>
<path d="M0 0 C1.83408523 -0.00570974 3.66816691 -0.01267633 5.50224304 -0.02079773 C10.45855892 -0.03867066 15.41469721 -0.03757266 20.37103558 -0.03185534 C24.51402688 -0.02875715 28.65698438 -0.03486246 32.79997087 -0.04089409 C42.57126592 -0.05491638 52.34247349 -0.05339518 62.11376953 -0.04199219 C72.18980342 -0.03049339 82.26557169 -0.04462145 92.34157062 -0.07138866 C101.00338449 -0.09353624 109.6651149 -0.10018575 118.32695508 -0.09431225 C123.49589487 -0.09094163 128.66466409 -0.09336576 133.83358002 -0.11056328 C138.68957787 -0.12601691 143.54518093 -0.12209447 148.4011631 -0.10325813 C150.18213894 -0.0995689 151.96314396 -0.10269046 153.74409294 -0.11314392 C156.17667335 -0.12633199 158.60794225 -0.11482717 161.04046631 -0.09715271 C162.09542994 -0.11156022 162.09542994 -0.11156022 163.17170596 -0.12625879 C170.36619947 -0.01881568 174.46497357 3.82609997 179.33636475 8.69250488 C180.19155197 9.54205246 181.0467392 10.39160004 181.92784119 11.26689148 C183.30740746 12.65253044 183.30740746 12.65253044 184.71484375 14.06616211 C185.70713217 15.05573738 186.69984489 16.04488734 187.69294739 17.03364563 C190.37707464 19.70868763 193.05487613 22.38997803 195.73128414 25.07274055 C198.5367082 27.8832418 201.3470242 30.68884465 204.15655518 33.49523926 C208.87083113 38.20588178 213.58088576 42.92071421 218.28857422 47.63793945 C223.73009265 53.09035386 229.17879558 58.53550897 234.63126159 63.97697401 C239.3170156 68.65365248 243.99886141 73.33421662 248.67746186 78.01805162 C251.46993987 80.81364623 254.26374826 83.6078753 257.06108856 86.39860535 C259.68891167 89.02065132 262.31179426 91.64754127 264.93094444 94.27824974 C266.35135514 95.70256553 267.77669251 97.12196281 269.2021637 98.54121399 C270.04607162 99.39076157 270.88997955 100.24030914 271.75946045 101.11560059 C272.49463268 101.85152687 273.22980492 102.58745316 273.9872551 103.34568024 C278.04913875 107.97340751 278.08667222 112.064855 278.06860352 118.04052734 C278.07626991 119.34608833 278.07626991 119.34608833 278.08409119 120.67802429 C278.09798753 123.55421837 278.09703041 126.43017284 278.09472656 129.30639648 C278.09861341 131.30652455 278.10294806 133.30665179 278.10771179 135.30677795 C278.11517405 139.49897945 278.11488263 143.69109673 278.10961914 147.88330078 C278.1038239 153.25467309 278.12075687 158.62570065 278.14396381 163.99701595 C278.15869762 168.12771113 278.15957334 172.2583232 278.15645409 176.38903999 C278.15696745 178.36937709 278.16220811 180.34971882 278.17226601 182.33003044 C278.18460643 185.09964256 278.17785314 187.86858219 278.16625977 190.63818359 C278.1739035 191.4554895 278.18154724 192.27279541 278.18942261 193.11486816 C278.14704099 197.69704156 277.76938842 200.69038918 274.79394531 204.40405273 C271.79394531 206.40405273 271.79394531 206.40405273 269.63769531 206.33764648 C268.86425781 206.17393555 268.09082031 206.01022461 267.29394531 205.84155273 C266.13378906 205.62305664 266.13378906 205.62305664 264.95019531 205.40014648 C261.88467735 203.98401047 261.23511285 202.44586199 259.79394531 199.40405273 C259.5245282 196.7152715 259.41322095 194.2672599 259.45336914 191.58447266 C259.45293106 190.81321045 259.45249298 190.04194824 259.45204163 189.24731445 C259.45412415 186.70945525 259.47742934 184.17226465 259.50097656 181.63452148 C259.50657444 179.87047181 259.51084363 178.10641746 259.51383972 176.34236145 C259.52527345 171.70788614 259.55472791 167.07369456 259.58795166 162.43933105 C259.61868432 157.70690753 259.63235188 152.97443799 259.64746094 148.24194336 C259.67959906 138.96252208 259.73077758 129.68331104 259.79394531 120.40405273 C258.88685318 120.41071457 257.97976105 120.4173764 257.04518127 120.42424011 C248.46850119 120.4845195 239.89189295 120.53011241 231.31504917 120.55948925 C226.90631078 120.57510024 222.49774843 120.59625438 218.08911133 120.63037109 C213.82915978 120.66312835 209.56937685 120.68094004 205.30930901 120.68868446 C203.68951707 120.69419874 202.06973366 120.70496638 200.45001411 120.7212429 C187.91727339 120.84209833 177.81269328 119.74040717 167.79394531 111.40405273 C157.87773799 101.15730517 157.2243007 89.52351861 157.40332031 76.02124023 C157.41079441 74.35402103 157.41648181 72.68679295 157.42047119 71.01956177 C157.43563572 66.66287345 157.47483635 62.30673114 157.51928711 57.95025635 C157.56043976 53.49222191 157.57852461 49.03409797 157.59863281 44.57592773 C157.64134121 35.85172076 157.70947875 27.12795495 157.79394531 18.40405273 C134.83679702 18.41786029 111.87985759 18.46009499 88.92282772 18.5361433 C78.26338858 18.57079186 67.60407874 18.59614866 56.94458008 18.59960938 C47.65341292 18.60264945 38.36247605 18.62314579 29.07139784 18.66457731 C24.152083 18.685905 19.23309554 18.69850905 14.31373405 18.69020653 C9.68181263 18.682665 5.05055448 18.69849332 0.41875458 18.73211288 C-1.27953321 18.74034492 -2.97788698 18.74009751 -4.67616844 18.73064995 C-14.54284491 18.33928834 -14.54284491 18.33928834 -23.58372498 21.57026672 C-29.01594558 27.44052426 -29.64617372 32.38883521 -29.6047821 40.04708862 C-29.61142893 41.01184998 -29.61807576 41.97661133 -29.624924 42.97060788 C-29.64355958 46.19966974 -29.64094829 49.42836124 -29.63842773 52.6574707 C-29.64744453 54.97360254 -29.65777154 57.28972958 -29.66931152 59.60585022 C-29.69691718 65.89249707 -29.70617094 72.17905346 -29.71216559 78.46575308 C-29.72153992 85.03613471 -29.74774258 91.60644853 -29.77217102 98.17678833 C-29.81139552 109.20435293 -29.83924227 120.23190684 -29.85961914 131.25952148 C-29.88063335 142.6166444 -29.90791229 153.97372386 -29.94360352 165.33081055 C-29.94580234 166.03117817 -29.94800117 166.73154579 -29.95026662 167.45313667 C-29.96133638 170.96676994 -29.97252917 174.4804028 -29.98378313 177.99403548 C-30.0769469 207.13066695 -30.14833322 236.26732994 -30.20605469 265.40405273 C-28.8925 265.36924805 -27.57894531 265.33444336 -26.22558594 265.29858398 C-24.48992168 265.27043808 -22.75424354 265.24313878 -21.01855469 265.21655273 C-20.15423828 265.19141602 -19.28992188 265.1662793 -18.39941406 265.14038086 C-13.51550924 265.08424402 -10.12642265 265.13834816 -6.20605469 268.40405273 C-4.20605469 271.40405273 -4.20605469 271.40405273 -4.26855469 274.84155273 C-5.20605469 278.40405273 -5.20605469 278.40405273 -7.12011719 280.61108398 C-11.58083183 283.20281566 -15.4619757 282.83987755 -20.51855469 282.65405273 C-21.44990234 282.63600586 -22.38125 282.61795898 -23.34082031 282.59936523 C-25.63029666 282.55240162 -27.91763653 282.48674748 -30.20605469 282.40405273 C-30.19223814 301.82359208 -30.1499602 321.24287162 -30.07396412 340.66226959 C-30.03933713 349.67941482 -30.01396161 358.69640755 -30.01049805 367.71362305 C-30.00745496 375.57467477 -29.98691826 383.43545472 -29.94553012 391.2964015 C-29.92422954 395.45731932 -29.91158424 399.61785106 -29.91990089 403.77882385 C-29.92745988 407.69918218 -29.9115444 411.61875944 -29.87799454 415.53897476 C-29.86978334 416.97399214 -29.86998531 418.40908752 -29.87945747 419.84409714 C-29.92190889 426.98511177 -29.93734089 432.87815927 -25.76490307 438.87709808 C-20.47539295 444.05838587 -15.5571913 443.83123749 -8.50880432 443.78500366 C-7.41845711 443.78968363 -6.3281099 443.79436361 -5.20472187 443.7991854 C-1.54431718 443.81116919 2.11571546 443.80166462 5.77612305 443.79223633 C8.3976361 443.79630053 11.01914744 443.80164156 13.64065552 443.8081665 C20.0261892 443.82150962 26.41161712 443.81862342 32.79715496 443.80992858 C37.98721087 443.80315411 43.17723715 443.80223429 48.36729622 443.80550003 C49.10590788 443.80595973 49.84451955 443.80641943 50.60551338 443.80689306 C52.10599033 443.80785223 53.60646728 443.80882487 55.10694421 443.80981083 C69.17885272 443.81836657 83.25070261 443.80852803 97.3226015 443.79240973 C109.39551696 443.77900916 121.46834587 443.78133212 133.54125977 443.79516602 C147.56117667 443.81122338 161.58104217 443.81753965 175.60096699 443.80832922 C177.09623753 443.80737358 178.59150808 443.80643047 180.08677864 443.80550003 C181.19032599 443.80480579 181.19032599 443.80480579 182.31616722 443.80409753 C187.49915066 443.8015079 192.68210149 443.8058781 197.86507988 443.81293869 C204.84264094 443.822235 211.82003578 443.81560866 218.79758072 443.79825592 C221.36064062 443.79428439 223.92371426 443.79543646 226.48676872 443.80204391 C229.98126972 443.81022292 233.475244 443.79998113 236.9697113 443.78500366 C237.98770685 443.79169583 239.0057024 443.79838799 240.0545463 443.80528295 C246.18545837 443.75419966 250.74318667 443.20847595 255.45323944 438.87873936 C258.83998318 434.19596801 259.49781415 430.61199978 259.37402344 424.90185547 C259.3777018 423.67119858 259.3777018 423.67119858 259.38145447 422.41567993 C259.38361688 420.64565941 259.37442295 418.87559536 259.35496521 417.10568047 C259.3248033 414.30119671 259.32595065 411.49823301 259.33508301 408.69361877 C259.34897422 402.74273598 259.32428451 396.79235304 259.29394531 390.84155273 C259.25877925 383.93955239 259.23958024 377.03829127 259.2620697 370.13621712 C259.26268623 367.37825844 259.23353511 364.62164329 259.20324707 361.86387634 C259.20532203 360.16820029 259.20878808 358.47252518 259.21386719 356.77685547 C259.18914589 355.63348976 259.18914589 355.63348976 259.16392517 354.46702576 C259.20841827 350.53006726 259.74425024 347.98277966 262.17785645 344.94715881 C264.79394531 342.40405273 264.79394531 342.40405273 267.23144531 341.34155273 C270.76555361 341.4277505 272.83991528 342.50034449 275.79394531 344.40405273 C278.41542632 348.0533631 278.08274317 352.09918574 278.06860352 356.41040039 C278.07626991 357.61613205 278.07626991 357.61613205 278.08409119 358.84622192 C278.09798905 361.50359552 278.09702935 364.1607096 278.09472656 366.81811523 C278.09861526 368.67174373 278.1029503 370.52537134 278.10771179 372.3789978 C278.1151758 376.26774987 278.11488279 380.15641118 278.10961914 384.04516602 C278.10384438 389.00801242 278.12070621 393.9704832 278.14396381 398.93326759 C278.15876426 402.76478214 278.15956395 406.59620775 278.15645409 410.42774582 C278.1569648 412.2560233 278.16215516 414.0843061 278.17226601 415.91255569 C278.24205892 430.30624005 277.43504728 442.09984462 267.16503906 453.15795898 C260.44978076 459.37463662 252.17178904 462.52128428 243.05241871 462.5354805 C242.12204723 462.53932164 241.19167575 462.54316279 240.2331112 462.54712033 C239.21950436 462.54625385 238.20589752 462.54538737 237.16157532 462.54449463 C236.07813392 462.54746575 234.99469253 462.55043687 233.87841958 462.55349803 C230.2412856 462.56218236 226.60418455 462.56369306 222.96704102 462.56518555 C220.36187164 462.56981391 217.75670294 462.57483859 215.15153503 462.58023071 C208.06874264 462.59379975 200.98595593 462.59983658 193.9031527 462.60424137 C189.47827742 462.60700633 185.05340431 462.61124415 180.6285305 462.61574554 C168.3707318 462.62793656 156.11293483 462.63823606 143.8551302 462.64162064 C143.07093683 462.6418402 142.28674346 462.64205977 141.47878666 462.64228599 C140.69274559 462.64250427 139.90670452 462.64272254 139.09684402 462.64294744 C137.50409718 462.6433909 135.91135035 462.64383746 134.31860352 462.64428711 C133.13352414 462.64461925 133.13352414 462.64461925 131.92450377 462.64495811 C119.12782858 462.64890466 106.33121038 462.66635505 93.5345572 462.68964663 C80.38778409 462.71338177 67.24103954 462.72582348 54.09424466 462.72698855 C46.71630987 462.72790412 39.33844934 462.73362657 31.96053505 462.75180817 C25.01909372 462.76885419 18.07779534 462.77044561 11.13633919 462.76166916 C8.59107842 462.76089863 6.04581008 462.76524348 3.50056839 462.77512741 C0.02062273 462.78784666 -3.45882404 462.78196966 -6.93876648 462.77154541 C-7.94121971 462.77960181 -8.94367295 462.78765822 -9.97650355 462.79595876 C-20.30406518 462.72381938 -29.26881142 460.17795237 -37.20605469 453.40405273 C-46.9506685 443.18639941 -47.64789185 433.4546996 -47.59373474 419.93739319 C-47.59790982 418.24573124 -47.60338829 416.55407208 -47.61005455 414.86241812 C-47.62450494 410.22316721 -47.6202657 405.58409402 -47.61288774 400.9448334 C-47.60815741 395.9379215 -47.62066471 390.93104812 -47.63090515 385.92414856 C-47.64810085 376.11901787 -47.64893159 366.31395125 -47.64369225 356.5088094 C-47.63965091 348.53948588 -47.64109368 340.5701813 -47.64644051 332.60085869 C-47.64718893 331.46664301 -47.64793735 330.33242732 -47.64870845 329.16384147 C-47.65023993 326.85969532 -47.65177827 324.55554917 -47.65332342 322.25140303 C-47.66705115 300.6440144 -47.66160875 279.03666199 -47.65013821 257.42927419 C-47.64020459 237.66118897 -47.65314826 217.89319733 -47.6770724 198.12512655 C-47.70145366 177.82640732 -47.71107372 157.5277317 -47.70441967 137.22899812 C-47.70092542 125.83311424 -47.70317323 114.43730234 -47.7206707 103.04142952 C-47.73538044 93.34085969 -47.73604409 83.64041254 -47.71859979 73.93984515 C-47.71007753 68.99087153 -47.70797026 64.04211719 -47.72325134 59.09315491 C-47.73707166 54.56117365 -47.73236948 50.02960009 -47.71301211 45.49764257 C-47.70924365 43.85977937 -47.71219842 42.22188371 -47.72262376 40.58404935 C-47.772439 32.15762645 -47.72599929 24.78632897 -43.20605469 17.40405273 C-42.7484375 16.60612305 -42.29082031 15.80819336 -41.81933594 14.98608398 C-31.24556826 0.60194958 -16.50468705 -0.04649704 0 0 Z " fill="#020100" transform="translate(47.2060546875,24.595947265625)"/>
<path d="M0 0 C6.67261922 4.70316774 12.78550107 10.14566567 18.94140625 15.49609375 C22.45695735 18.54244178 26.08089856 21.43655376 29.73046875 24.3203125 C32.77240501 26.76688509 35.74931702 29.28336317 38.72265625 31.8125 C43.51177695 35.88474464 48.34132745 39.89981735 53.21484375 43.87109375 C62.8195838 51.703967 72.38581986 59.57948754 81.82373047 67.61279297 C85.71849063 70.91910967 89.69186507 74.11224573 93.6953125 77.28515625 C96.745976 79.74685304 99.73660571 82.27313682 102.72265625 84.8125 C107.51182883 88.88468486 112.34132588 92.89981607 117.21484375 96.87109375 C126.79222174 104.68165265 136.33268582 112.53390958 145.74902344 120.53808594 C149.98801505 124.13682708 154.27622113 127.67093907 158.58984375 131.1796875 C160.45490894 132.69876959 162.31390575 134.2253214 164.16796875 135.7578125 C166.03398222 137.29841763 167.90734719 138.83017565 169.7890625 140.3515625 C171.29549529 141.57273963 172.78752293 142.81244852 174.25 144.0859375 C177.34581646 146.62717459 179.05244599 147.37118508 183.09765625 147.4375 C186.22002938 146.80943644 189.0370121 145.72080995 191.97265625 144.5 C211.63371592 136.32529537 230.97114297 138.2015094 250.47265625 145.5625 C267.96448513 153.35777157 279.75124328 166.27265091 286.66015625 184.0625 C291.19255725 198.54729818 287.89368485 213.10762405 281.28515625 226.375 C270.03593041 244.82078299 253.52876032 253.28130697 233.28515625 258.375 C232.6305542 258.55313232 231.97595215 258.73126465 231.30151367 258.91479492 C214.74419787 262.6937682 195.49314812 257.73282645 181.14453125 249.3203125 C176.40721109 246.09738157 172.30013764 242.4518561 168.28515625 238.375 C167.55296875 237.64152344 166.82078125 236.90804687 166.06640625 236.15234375 C156.49594024 226.02836198 151.21236879 212.64604366 150.84765625 198.6875 C151.00460577 193.52699964 151.95480596 188.98051081 153.62890625 184.10546875 C154.50895601 180.44383314 154.99343061 177.10666151 154.28515625 173.375 C152.2072671 170.4334386 152.2072671 170.4334386 149.16015625 168.0625 C148.35251831 167.37003174 148.35251831 167.37003174 147.52856445 166.66357422 C145.80423688 165.20241394 144.05260411 163.78360975 142.28515625 162.375 C141.72393066 161.92753418 141.16270508 161.48006836 140.58447266 161.01904297 C138.30581786 159.21420055 136.01868636 157.4211972 133.71704102 155.64575195 C128.54190876 151.64095761 123.61200347 147.38837324 118.68920898 143.07958984 C113.32094486 138.3852515 107.83258169 133.85625358 102.28515625 129.375 C95.83970343 124.13925093 89.45495141 118.84116505 83.12597656 113.46582031 C77.90068437 109.0344004 72.6015974 104.69655158 67.28515625 100.375 C61.46234514 95.64183775 55.68045077 90.87083427 49.97265625 86 C45.53654137 82.2171847 41.019156 78.56967742 36.41015625 75 C30.6665026 70.54573799 25.15781605 65.86570905 19.68896484 61.07958984 C14.32104903 56.3849428 8.8325301 51.85621191 3.28515625 47.375 C-2.53919961 42.64377838 -8.31969942 37.87093508 -14.02734375 33 C-18.56401821 29.12982547 -23.18975335 25.40352369 -27.90234375 21.75 C-33.75689182 17.20998663 -39.29540156 12.43231356 -44.71484375 7.375 C-33.40603596 -7.37201676 -15.79566537 -9.45467165 0 0 Z M193.28515625 183.375 C188.6868559 188.83140102 185.87812424 193.90105205 186.01171875 201.1953125 C186.80184101 207.49371568 190.64625422 212.51279658 195.15625 216.76953125 C204.78747582 224.03271256 215.58136289 225.23920415 227.28515625 224.375 C236.69325504 222.50688469 245.20162938 218.14134929 250.78515625 210.125 C253.87035938 204.46879427 254.41870131 198.41821805 252.671875 192.1875 C249.37646315 184.7546768 243.44216229 180.03709097 236.03515625 177 C221.4557995 171.66042667 205.54661879 173.56160916 193.28515625 183.375 Z " fill="#01A6F0" transform="translate(206.71484375,184.625)"/>
<path d="M0 0 C1.64137939 0.01353516 1.64137939 0.01353516 3.31591797 0.02734375 C23.09264722 0.44707094 39.94665688 7.16607463 53.8125 21.4375 C54.76189453 22.35595703 54.76189453 22.35595703 55.73046875 23.29296875 C65.19470573 33.09148342 69.74460342 45.86296661 70.125 59.25 C69.81953723 75.97857878 63.17908678 89.58700393 51.24169922 101.10498047 C37.52581292 113.89304118 19.68101445 119.84548554 1.125 119.8125 C-0.30912231 119.81008301 -0.30912231 119.81008301 -1.7722168 119.80761719 C-12.6335657 119.62156335 -22.57343023 117.22797819 -32.2578125 112.171875 C-34.80374511 111.20297757 -36.47798496 111.07101544 -39.1875 111.4375 C-41.73463259 113.00981129 -41.73463259 113.00981129 -44.1875 115.25 C-45.13882813 116.06210937 -46.09015625 116.87421875 -47.0703125 117.7109375 C-48.11016224 118.61889086 -49.14919056 119.5277856 -50.1875 120.4375 C-51.90605561 121.93219765 -53.62762566 123.4230273 -55.35546875 124.90698242 C-56.47092949 125.86625951 -57.58060257 126.83231915 -58.68359375 127.8059082 C-61.69741076 130.40947976 -64.38777181 132.21065049 -68.1875 133.4375 C-70.79994444 131.30004545 -73.41219582 129.16236157 -76.0234375 127.0234375 C-78.08640562 125.33509114 -80.15481103 123.65420187 -82.2265625 121.9765625 C-83.18304688 121.20054687 -84.13953125 120.42453125 -85.125 119.625 C-86.00027344 118.91730469 -86.87554687 118.20960938 -87.77734375 117.48046875 C-90.03787361 115.5643308 -92.1268349 113.56510086 -94.1875 111.4375 C-87.91219227 106.09999661 -81.63051424 100.77413216 -75.25 95.5625 C-74.36699219 94.83546875 -73.48398437 94.1084375 -72.57421875 93.359375 C-71.14621069 92.20948962 -69.69636505 91.08489029 -68.20703125 90.015625 C-65.41582667 87.97360359 -64.24971988 86.62049965 -63.125 83.3125 C-63.18083677 79.85062038 -63.58300621 77.95112515 -64.625 74.75 C-68.15243691 62.94288477 -67.96203359 48.42110841 -62.1875 37.4375 C-61.70152344 36.45652344 -61.21554687 35.47554687 -60.71484375 34.46484375 C-52.20498 18.55159973 -37.74506181 8.30905992 -20.82299805 2.64624023 C-13.8097236 0.52480505 -7.30558604 -0.07261337 0 0 Z M-27.625 46.9375 C-30.81101184 50.961936 -31.94209338 54.61447936 -32.625 59.6875 C-31.84596853 66.36491262 -28.90926241 72.23477004 -23.9375 76.8125 C-13.93698929 84.53718333 -2.39168279 85.53070856 9.8125 84.4375 C19.54609882 82.24800749 26.9237973 77.4475987 32.8125 69.4375 C35.54213489 64.84675041 35.64723753 59.6188888 34.8125 54.4375 C31.51267079 45.89307533 25.79976945 41.20756638 17.66796875 37.4453125 C1.82262402 31.08293699 -15.96680414 34.23989873 -27.625 46.9375 Z " fill="#3E4FB2" transform="translate(425.1875,153.5625)"/>
<path d="M0 0 C5.13055355 1.5303372 8.42691161 4.74120777 12.3125 8.25 C16.41594966 11.89556686 20.47461453 15.48030095 24.9375 18.6875 C25.948125 19.450625 26.95875 20.21375 28 21 C28 21.66 28 22.32 28 23 C26.01389537 24.68007927 24.01552981 26.25287932 21.9375 27.8125 C16.63395593 31.8771014 11.51376895 36.08328052 6.5 40.5 C1.22334707 45.13623282 -4.1714114 49.54429503 -9.73046875 53.8359375 C-14.11838669 57.24766695 -18.32448548 60.83243467 -22.5 64.5 C-27.77581109 69.13401139 -33.16702452 73.5431332 -38.72607422 77.83154297 C-43.16347084 81.27979855 -47.40508449 84.91510739 -51.625 88.625 C-74.96257659 108.9989321 -74.96257659 108.9989321 -91.86328125 108.37890625 C-100.87252705 107.29061628 -107.24934812 102.80490838 -114 97 C-112.63880947 93.86006282 -111.20621833 92.06578797 -108.54296875 89.93359375 C-107.84921143 89.3713208 -107.1554541 88.80904785 -106.44067383 88.22973633 C-105.69712646 87.63829834 -104.9535791 87.04686035 -104.1875 86.4375 C-102.63215599 85.1804994 -101.0774745 83.92267861 -99.5234375 82.6640625 C-98.75354492 82.04305664 -97.98365234 81.42205078 -97.19042969 80.78222656 C-94.18927361 78.3403586 -91.24904754 75.83131525 -88.3125 73.3125 C-84.00302015 69.6321413 -79.60429729 66.09620572 -75.125 62.625 C-69.38147669 58.17056076 -63.87267049 53.4907184 -58.40380859 48.70458984 C-53.03589278 44.0099428 -47.54737385 39.48121191 -42 35 C-35.53073249 29.74490586 -29.12494436 24.42537724 -22.77709961 19.02490234 C-18.68322842 15.55216602 -14.50896173 12.19286003 -10.30078125 8.859375 C-6.77537183 6.01031747 -3.37896344 3.02030251 0 0 Z " fill="#3E50B3" transform="translate(276,310)"/>
<path d="M0 0 C1.01223633 0.00757324 2.02447266 0.01514648 3.06738281 0.02294922 C10.53637385 0.18761799 16.85447395 1.12470438 23.625 4.4375 C24.55054688 4.85 25.47609375 5.2625 26.4296875 5.6875 C38.97111294 11.80187916 46.13859958 21.14043222 50.9375 33.9375 C53.20888271 45.50090287 50.56448824 55.28043387 44.28125 65.12109375 C35.82313904 76.95048007 23.98919023 81.6476006 10.23828125 85.0234375 C-6.52438297 87.67940522 -21.74209158 83.60310415 -35.58984375 73.8828125 C-42.96713203 67.96399004 -49.33246874 59.03513818 -50.640625 49.50170898 C-51.7271856 36.54900117 -49.43563943 27.59034235 -41.62109375 17.078125 C-31.0262499 5.27048045 -15.4728693 -0.16262776 0 0 Z M-28.8125 29.9375 C-31.99851184 33.961936 -33.12959338 37.61447936 -33.8125 42.6875 C-33.03346853 49.36491262 -30.09676241 55.23477004 -25.125 59.8125 C-15.12448929 67.53718333 -3.57918279 68.53070856 8.625 67.4375 C18.35859882 65.24800749 25.7362973 60.4475987 31.625 52.4375 C34.35463489 47.84675041 34.45973753 42.6188888 33.625 37.4375 C30.32517079 28.89307533 24.61226945 24.20756638 16.48046875 20.4453125 C0.63512402 14.08293699 -17.15430414 17.23989873 -28.8125 29.9375 Z " fill="#000001" transform="translate(426.375,170.5625)"/>
<path d="M0 0 C0.87269531 0.44730469 1.74539063 0.89460938 2.64453125 1.35546875 C14.31599699 7.88239037 22.67303051 16.61179362 26.53125 29.65625 C28.47094832 39.3547416 26.73326821 48.72363074 21.6875 57.1875 C20.81256132 58.47280815 19.91685576 59.74424913 19 61 C18.37158203 61.89332031 18.37158203 61.89332031 17.73046875 62.8046875 C11.05972237 71.45551133 1.17046663 75.80454933 -9 79 C-10.485 79.495 -10.485 79.495 -12 80 C-32.02591845 81.60045276 -47.33445289 79.57552226 -62.9921875 66.3125 C-67.47271185 62.15888086 -70.40272458 57.50583479 -73 52 C-73.55107422 50.89785156 -73.55107422 50.89785156 -74.11328125 49.7734375 C-75.3481381 45.9111099 -75.38332341 42.28352285 -75.375 38.25 C-75.37338867 37.44594727 -75.37177734 36.64189453 -75.37011719 35.81347656 C-75.24514492 29.77315009 -74.32478974 25.13726193 -71 20 C-70.4225 18.989375 -69.845 17.97875 -69.25 16.9375 C-63.59788094 9.55834456 -57.32853005 4.15811397 -49 0 C-48.19949219 -0.41507812 -47.39898437 -0.83015625 -46.57421875 -1.2578125 C-33.41209143 -6.83465459 -12.71003176 -6.61085388 0 0 Z M-51 22 C-55.59830035 27.45640102 -58.40703201 32.52605205 -58.2734375 39.8203125 C-57.48331524 46.11871568 -53.63890203 51.13779658 -49.12890625 55.39453125 C-39.49768043 62.65771256 -28.70379336 63.86420415 -17 63 C-7.59190121 61.13188469 0.91647313 56.76634929 6.5 48.75 C9.58520313 43.09379427 10.13354506 37.04321805 8.38671875 30.8125 C5.0913069 23.3796768 -0.84299396 18.66209097 -8.25 15.625 C-22.82935675 10.28542667 -38.73853746 12.18660916 -51 22 Z " fill="#000101" transform="translate(451,346)"/>
<path d="M0 0 C4.84060278 4.03702994 9.4050442 8.26043934 13.85327148 12.72387695 C14.82040825 13.68838524 14.82040825 13.68838524 15.80708313 14.67237854 C17.91425722 16.77518969 20.01779818 18.88159123 22.12109375 20.98828125 C23.59067931 22.45719267 25.06041326 23.92595567 26.5302887 25.39457703 C29.59725924 28.46007857 32.66242659 31.52736866 35.72631836 34.59594727 C39.66298943 38.53834544 43.60417344 42.47619685 47.54669094 46.41274738 C50.57580303 49.43825803 53.60254436 52.46613132 56.62855721 55.49474144 C58.08196577 56.94881887 59.53612245 58.40214893 60.99102592 59.85473061 C63.0139357 61.87511746 65.03364065 63.89865289 67.05249023 65.9230957 C67.65864166 66.5272229 68.26479309 67.1313501 68.88931274 67.75378418 C73 71.88573158 73 71.88573158 73 73 C65.18490141 73.1162459 57.37000826 73.20489217 49.55426025 73.25906086 C45.92437026 73.28506975 42.29507508 73.32030459 38.66552734 73.37719727 C35.15766623 73.43183357 31.65037439 73.46148592 28.14212036 73.47438622 C26.16348473 73.48801615 24.18507571 73.52699905 22.20678711 73.56648254 C15.90809587 73.56843127 10.68793156 73.51961613 5.54876709 69.57304382 C-0.13005915 63.80520268 -0.45516301 57.80216787 -0.45318604 49.94567871 C-0.43254089 48.67454224 -0.41189575 47.40340576 -0.390625 46.09375 C-0.38315092 44.75997776 -0.37746351 43.42619444 -0.37347412 42.09240723 C-0.35830909 38.60694266 -0.31910919 35.12216055 -0.2746582 31.63696289 C-0.23350594 28.07056913 -0.21542086 24.5040635 -0.1953125 20.9375 C-0.15260362 13.95805561 -0.08446583 6.9790607 0 0 Z " fill="#FBBE07" transform="translate(222,55)"/>
<path d="M0 0 C0 7.26 0 14.52 0 22 C-1.65 22.66 -3.3 23.32 -5 24 C-7.76039144 26.49143649 -7.99079108 27.90609689 -8.35835266 31.65411377 C-8.3664886 33.14603133 -8.35825945 34.6380923 -8.3371582 36.12988281 C-8.33798904 37.35506371 -8.33798904 37.35506371 -8.33883667 38.60499573 C-8.33857699 40.37669334 -8.33170528 42.14839954 -8.31899452 43.92005157 C-8.30061311 46.72881739 -8.30328679 49.53683761 -8.3120575 52.34564209 C-8.3338636 60.33064235 -8.32300709 68.31535806 -8.28491211 76.30029297 C-8.26307224 81.18753664 -8.2703958 86.07404793 -8.2953701 90.96126556 C-8.29895491 92.81911213 -8.29134798 94.67701663 -8.27211952 96.53476715 C-8.09386036 114.10340907 -8.09386036 114.10340907 -13.44963074 119.730896 C-19.35564028 124.5654477 -24.65836836 124.35271184 -32 124 C-31.72285156 123.45730469 -31.44570313 122.91460937 -31.16015625 122.35546875 C-30.79792969 121.64003906 -30.43570312 120.92460937 -30.0625 120.1875 C-29.70285156 119.47980469 -29.34320313 118.77210938 -28.97265625 118.04296875 C-26.77663761 113.43044767 -26.93633892 109.34640734 -27.06103516 104.35693359 C-27.09735744 102.52599836 -27.13327803 100.69505512 -27.16885376 98.86410522 C-27.189193 97.89250835 -27.20953224 96.92091148 -27.23048782 95.91987228 C-27.35122793 89.69178219 -27.41359619 83.46276971 -27.48780251 77.23398399 C-27.55636798 71.76200406 -27.64460432 66.29168375 -27.77490234 60.82080078 C-27.89985825 55.52634966 -27.97041625 50.23360937 -28.00471115 44.93782425 C-28.02746933 42.92419433 -28.06981001 40.9106832 -28.13246536 38.89789963 C-28.60675755 23.14132895 -28.60675755 23.14132895 -24.61543274 17.82208252 C-21.84556363 15.53722696 -19.11948659 13.76277423 -16 12 C-14.6916656 10.94794864 -13.40180645 9.87133578 -12.15234375 8.75 C-11.61029297 8.28722656 -11.06824219 7.82445312 -10.50976562 7.34765625 C-9.42588063 6.41861197 -8.34258214 5.48888314 -7.25976562 4.55859375 C-1.91543136 0 -1.91543136 0 0 0 Z " fill="#FBD733" transform="translate(316,345)"/>
<path d="M0 0 C22.77 0 45.54 0 69 0 C69.04898438 5.65640625 69.09796875 11.3128125 69.1484375 17.140625 C69.18382028 20.72267422 69.21977823 24.3046991 69.2578125 27.88671875 C69.31813559 33.57304412 69.37632075 39.25933542 69.421875 44.94580078 C69.45873232 49.53001959 69.50509358 54.11405253 69.55806351 58.69811249 C69.57660506 60.4475758 69.59171392 62.19707896 69.60334396 63.94660187 C69.6202105 66.39591023 69.64924631 68.84479313 69.68115234 71.29394531 C69.68331253 72.01827255 69.68547272 72.74259979 69.68769836 73.48887634 C69.70082966 78.62039183 69.70082966 78.62039183 72 83 C73.98 83.66 75.96 84.32 78 85 C78 92.26 78 99.52 78 107 C74.08152507 105.04076254 71.13843625 102.71885159 67.875 99.875 C66.81126025 98.95415067 65.74611126 98.03492718 64.6796875 97.1171875 C64.14591492 96.63555145 63.61214233 96.15391541 63.06219482 95.65768433 C61.01439764 93.9113049 61.01439764 93.9113049 58.47979736 92.6267395 C54.87055232 90.4433287 51.67792445 88.35893052 50.45796585 84.1139183 C49.63920343 78.31142011 50.00295935 72.45960854 50.2421875 66.625 C50.28331788 64.73080366 50.31996341 62.8365051 50.35232544 60.94213867 C50.44915217 55.97546959 50.60655657 51.0125307 50.7769165 46.0479126 C50.96893641 40.08095663 51.0851711 34.11209529 51.21420288 28.14350891 C51.41830684 19.09289887 51.71815196 10.05002463 52 1 C34.84 1 17.68 1 0 1 C0 0.67 0 0.34 0 0 Z " fill="#FBD733" transform="translate(238,145)"/>
<path d="M0 0 C16.55397525 3.54728041 31.92210736 12.1583735 42 26 C50.50137002 39.25394313 54.67156078 53.59612452 51.3125 69.25 C44.50535619 88.69898231 34.25526676 101.72382968 15.78857422 111.14990234 C11.38353987 113.24358643 6.77442696 114.9826305 2 116 C1.34 115.67 0.68 115.34 0 115 C0.76183594 114.45472656 1.52367187 113.90945313 2.30859375 113.34765625 C17.55994497 102.20902895 29.63621258 88.87643776 33.45703125 69.70703125 C33.75507109 67.46179777 33.91222441 65.26308367 34 63 C34.03996094 62.10152344 34.07992187 61.20304687 34.12109375 60.27734375 C34.25792881 54.42563249 33.59124061 49.61614331 32 44 C31.88527344 42.91847656 31.77054687 41.83695312 31.65234375 40.72265625 C30.92952515 36.59782918 29.48994244 33.31867115 27.5 29.6875 C27.14615234 29.03523438 26.79230469 28.38296875 26.42773438 27.7109375 C20.14096565 16.54669322 10.65645653 7.92669674 0 1 C0 0.67 0 0.34 0 0 Z " fill="#0275B9" transform="translate(443,326)"/>
<path d="M0 0 C14.63869239 2.61697294 26.66902242 9.3668366 37 20 C37.63292969 20.61230469 38.26585937 21.22460938 38.91796875 21.85546875 C48.38220573 31.65398342 52.93210342 44.42546661 53.3125 57.8125 C53.00703723 74.54107878 46.36658678 88.14950393 34.42919922 99.66748047 C27.01728683 106.57800624 13.74006786 116 3 116 C4.27241769 112.18274693 5.75304421 111.58737347 9.0625 109.375 C20.9269889 100.91350404 30.91822379 87.53216888 34 73 C35.55040987 63.4029629 35.60887403 54.36125386 33 45 C32.87753906 43.90816406 32.75507813 42.81632812 32.62890625 41.69140625 C30.15074046 27.14565054 19.11442532 14.91919668 8 6 C5.38273373 4.2241489 2.7225656 2.61337221 0 1 C0 0.67 0 0.34 0 0 Z " fill="#273491" transform="translate(442,155)"/>
<path d="M0 0 C0.66914429 -0.0038269 1.33828857 -0.00765381 2.02770996 -0.01159668 C3.43629469 -0.01430723 4.84493048 -0.00700592 6.25341797 0.00976562 C8.40056339 0.03119325 10.54436397 0.00994088 12.69140625 -0.015625 C14.0651115 -0.01298156 15.43881467 -0.00785625 16.8125 0 C18.67358398 0.00676758 18.67358398 0.00676758 20.57226562 0.01367188 C24.5017031 0.62369 26.16043067 1.6941569 28.90625 4.53125 C29.84230213 8.02584462 30.2805039 10.37730048 29.15625 13.84375 C27.90625 15.53125 27.90625 15.53125 24.90625 17.53125 C22.42403065 17.77435206 20.05599555 17.90690965 17.5703125 17.9375 C16.85394623 17.94890015 16.13757996 17.96030029 15.39950562 17.9720459 C13.88488653 17.99092017 12.37018579 18.00400372 10.85546875 18.01171875 C8.54540828 18.03113102 6.23891218 18.09317259 3.9296875 18.15625 C2.45575024 18.16931195 0.98178759 18.17981218 -0.4921875 18.1875 C-1.17880463 18.2121936 -1.86542175 18.23688721 -2.57284546 18.2623291 C-5.3285314 18.23690709 -7.47623399 18.02132767 -9.67218018 16.27856445 C-12.25264022 13.37683685 -13.08350159 11.82845384 -13.21875 7.90625 C-10.97574573 1.17723719 -6.67188286 0.02426139 0 0 Z " fill="#040401" transform="translate(192.09375,289.46875)"/>
<path d="M0 0 C0.66677261 -0.00478363 1.33354523 -0.00956726 2.02052307 -0.01449585 C3.42492036 -0.01788447 4.82939764 -0.00875426 6.23364258 0.01220703 C8.37046371 0.03895681 10.50201455 0.01245832 12.63867188 -0.01953125 C23.99161738 -0.04918319 23.99161738 -0.04918319 27.87109375 2.984375 C29.94140625 5.6640625 29.94140625 5.6640625 30.62890625 9.1640625 C29.75739793 13.60083213 28.46182249 14.87583182 24.94140625 17.6640625 C22.2037913 18.15302364 20.10030608 18.34583449 17.375 18.29296875 C16.65909195 18.29538071 15.9431839 18.29779266 15.20558167 18.30027771 C13.69860266 18.29930196 12.19158661 18.28597292 10.68481445 18.26098633 C8.38173568 18.22660474 6.08248289 18.2403533 3.77929688 18.25976562 C2.31118164 18.25286827 0.84307626 18.24319687 -0.625 18.23046875 C-1.65325645 18.23790855 -1.65325645 18.23790855 -2.70228577 18.24549866 C-5.99815038 18.16448216 -7.80702411 17.84934578 -10.48803711 15.87475586 C-12.37885382 13.21326894 -12.57834675 10.99137076 -12.6875 7.76171875 C-10.78691871 1.42251285 -6.01048576 0.02746126 0 0 Z " fill="#040300" transform="translate(132.05859375,289.3359375)"/>
<path d="M0 0 C0.66914429 -0.00004028 1.33828857 -0.00008057 2.02770996 -0.00012207 C3.43637533 0.00521721 4.84504154 0.02273242 6.25341797 0.05175781 C8.40034748 0.09363487 10.5441368 0.09282135 12.69140625 0.0859375 C24.3662096 0.1751205 24.3662096 0.1751205 28.90625 3.59375 C30.47560594 6.73246188 30.25826103 9.13230822 29.90625 12.59375 C27.27208849 16.02152113 25.77317701 17.43002733 21.48046875 18.24072266 C20.19785156 18.2463623 18.91523437 18.25200195 17.59375 18.2578125 C16.5567395 18.26498795 16.5567395 18.26498795 15.4987793 18.27230835 C14.04310824 18.27569736 12.58736004 18.2665645 11.13183594 18.24560547 C8.91167503 18.21881546 6.69656739 18.24537647 4.4765625 18.27734375 C3.05728058 18.27403946 1.63800179 18.26763281 0.21875 18.2578125 C-1.06386719 18.25217285 -2.34648438 18.2465332 -3.66796875 18.24072266 C-7.95780301 17.43057009 -9.44339826 16.00178907 -12.09375 12.59375 C-12.71875 9.09375 -12.71875 9.09375 -12.09375 5.59375 C-8.38465694 0.84763186 -5.9467394 -0.03398137 0 0 Z " fill="#030300" transform="translate(72.09375,289.40625)"/>
<path d="M0 0 C2.4375 1.625 2.4375 1.625 4 4 C4.72125695 8.40768137 4.52001338 10.25937488 1.9375 13.9375 C-1 16 -1 16 -4.5 16.6875 C-8 16 -8 16 -11 13.4375 C-13 10 -13 10 -13.125 6.375 C-10.80869361 -0.57391916 -6.85196698 -1.99329948 0 0 Z " fill="#000507" transform="translate(320,291)"/>
<path d="M0 0 C1.12525742 3.37577225 0.87828528 4.27858292 -0.1875 7.5625 C-0.54908203 8.74005859 -0.54908203 8.74005859 -0.91796875 9.94140625 C-2.24988067 12.47540474 -3.37657303 12.97609938 -6 14 C-6.99 14.495 -6.99 14.495 -8 15 C-6.38102741 11.69918209 -4.64075691 8.47442567 -2.875 5.25 C-2.33617187 4.26515625 -1.79734375 3.2803125 -1.2421875 2.265625 C-0.83226562 1.51796875 -0.42234375 0.7703125 0 0 Z " fill="#0198DD" transform="translate(476,395)"/>
<path d="M0 0 C1.18771723 3.42943519 0.80226223 5.37784675 -0.4375 8.75 C-0.72496094 9.54921875 -1.01242187 10.3484375 -1.30859375 11.171875 C-1.53675781 11.77515625 -1.76492188 12.3784375 -2 13 C-2.99 13 -3.98 13 -5 13 C-5 9.51038791 -4.09620626 7.88519705 -2.5 4.8125 C-2.0359375 3.91144531 -1.571875 3.01039063 -1.09375 2.08203125 C-0.7328125 1.39496094 -0.371875 0.70789063 0 0 Z " fill="#3646A1" transform="translate(476,224)"/>
</svg>
